<?xml version="1.0" encoding="UTF-8" standalone="no"?>
<svg
   xmlns:dc="http://purl.org/dc/elements/1.1/"
   xmlns:cc="http://creativecommons.org/ns#"
   xmlns:rdf="http://www.w3.org/1999/02/22-rdf-syntax-ns#"
   xmlns:svg="http://www.w3.org/2000/svg"
   xmlns="http://www.w3.org/2000/svg"
   xmlns:sodipodi="http://sodipodi.sourceforge.net/DTD/sodipodi-0.dtd"
   xmlns:inkscape="http://www.inkscape.org/namespaces/inkscape"
   width="55"
   height="55"
   viewBox="0 0 44 44"
   version="1.1"
   id="svg2"
   inkscape:version="0.48.5 r10040"
   sodipodi:docname="access.svg">
  <metadata
     id="metadata126">
    <rdf:RDF>
      <cc:Work
         rdf:about="">
        <dc:format>image/svg+xml</dc:format>
        <dc:type
           rdf:resource="http://purl.org/dc/dcmitype/StillImage" />
        <dc:title />
      </cc:Work>
    </rdf:RDF>
  </metadata>
  <defs
     id="defs124" />
  <sodipodi:namedview
     pagecolor="#ffffff"
     bordercolor="#666666"
     borderopacity="1"
     objecttolerance="10"
     gridtolerance="10"
     guidetolerance="10"
     inkscape:pageopacity="0"
     inkscape:pageshadow="2"
     inkscape:window-width="1366"
     inkscape:window-height="705"
     id="namedview122"
     showgrid="false"
     inkscape:zoom="1.0905983"
     inkscape:cx="404.86423"
     inkscape:cy="45.956113"
     inkscape:window-x="-8"
     inkscape:window-y="-8"
     inkscape:window-maximized="1"
     inkscape:current-layer="svg2"
     fit-margin-top="0"
     fit-margin-left="0"
     fit-margin-right="0"
     fit-margin-bottom="0" />
  <path
     d="m 23.739535,4 2.670139,0 c 0,1.299349 0,2.594233 0,3.893581 4.313303,-0.549209 8.82307,-0.509023 12.962233,0.955535 1.558326,0.531349 3.25507,1.745861 3.103256,3.603349 0.01786,6.862884 0.01786,13.730233 0,20.597582 0.156279,1.879813 -1.585116,3.085395 -3.161303,3.612279 -4.143627,1.375255 -8.604279,1.540465 -12.904186,0.928744 0,1.602977 0,3.205953 0,4.80893 l -2.781767,0 C 16.827535,41.158698 10.009302,40.024558 3.2,38.827907 3.2,28.410791 3.2,17.993674 3.2,7.581023 10.045023,6.384372 16.898977,5.218977 23.739535,4 z"
     id="path22"
     inkscape:connector-curvature="0"
     style="fill:#a33639" />
  <path
     d="m 26.409674,9.250977 c 3.987349,-0.54921 8.139907,-0.531349 12.015628,0.651907 1.067163,0.397395 2.496,0.875163 2.737117,2.147721 -0.178605,1.040372 -1.263628,1.509209 -2.120931,1.884279 -4.04986,1.366325 -8.430139,1.495814 -12.631814,0.861767 0,-1.848558 0,-3.697116 0,-5.545674 z"
     id="path50"
     inkscape:connector-curvature="0"
     style="fill:#ffffff" />
  <path
     d="m 35.554233,16.198698 c 1.964651,-0.290233 4.014139,-0.714419 5.60372,-1.991442 -0.09823,1.92 0.151814,3.862325 -0.133953,5.764465 -0.799256,0.95107 -2.067349,1.290419 -3.210419,1.616372 -3.728372,0.879628 -7.617488,0.901954 -11.403907,0.415256 0,-1.92893 0,-3.857861 0,-5.786791 3.031814,0.384 6.112745,0.379535 9.144559,-0.01786 z"
     id="path66"
     inkscape:connector-curvature="0"
     style="fill:#ffffff" />
  <path
     d="m 12.313302,15.738791 c 1.040372,-0.07591 2.076279,-0.147349 3.121117,-0.227721 1.495814,5.00093 2.915721,10.028651 4.393674,15.034046 -1.031442,-0.06698 -2.062884,-0.142883 -3.085395,-0.236651 -0.272372,-1.116279 -0.562605,-2.232558 -0.857303,-3.344372 -1.37079,-0.0045 -2.741581,-0.04912 -4.107907,-0.116093 -0.263442,1.058233 -0.531348,2.112 -0.803721,3.165767 -0.875162,-0.06698 -1.74586,-0.129488 -2.6165577,-0.187534 1.303814,-4.701768 2.6612097,-9.385675 3.9560927,-14.087442 z"
     id="path78"
     inkscape:connector-curvature="0"
     style="fill:#ffffff" />
  <path
     d="m 12.335628,24.436837 c 0.450977,-2.089674 1.120744,-4.130232 1.419907,-6.251163 0.40186,2.116466 1.022512,4.179349 1.531535,6.269024 -0.986791,-0.0045 -1.969117,-0.0089 -2.951442,-0.01786 z"
     id="path98"
     inkscape:connector-curvature="0"
     style="fill:#a33639" />
  <path
     d="m 35.581023,23.338419 c 1.960186,-0.290233 3.996279,-0.714419 5.57693,-1.986977 -0.0893,1.915535 0.138419,3.84893 -0.125023,5.75107 -0.781395,0.955535 -2.049488,1.294883 -3.188093,1.620837 -3.737302,0.888558 -7.639814,0.910884 -11.435163,0.428651 0,-1.933395 0,-3.862326 0,-5.791256 3.040745,0.388465 6.130605,0.379535 9.171349,-0.02233 z"
     id="path110"
     inkscape:connector-curvature="0"
     style="fill:#ffffff" />
  <path
     d="m 35.563163,30.482605 c 1.964651,-0.285768 4.005209,-0.714419 5.59479,-1.986977 -0.09377,1.915535 0.147349,3.85786 -0.133953,5.76 -1.263628,1.375256 -3.268465,1.629767 -5.005395,1.982512 -3.183628,0.486697 -6.438698,0.495627 -9.626791,0.03572 0.03126,-1.924465 0.01786,-3.844465 0.01786,-5.76893 3.036279,0.388465 6.11721,0.379535 9.153489,-0.02232 z"
     id="path118"
     inkscape:connector-curvature="0"
     style="fill:#ffffff" />
</svg>
