<?xml version="1.0" encoding="UTF-8" standalone="no"?>
<!-- Created with Inkscape (http://www.inkscape.org/) -->

<svg
   xmlns:dc="http://purl.org/dc/elements/1.1/"
   xmlns:cc="http://creativecommons.org/ns#"
   xmlns:rdf="http://www.w3.org/1999/02/22-rdf-syntax-ns#"
   xmlns:svg="http://www.w3.org/2000/svg"
   xmlns="http://www.w3.org/2000/svg"
   xmlns:sodipodi="http://sodipodi.sourceforge.net/DTD/sodipodi-0.dtd"
   xmlns:inkscape="http://www.inkscape.org/namespaces/inkscape"
   id="svg2"
   version="1.1"
   inkscape:version="0.48.5 r10040"
   width="60"
   height="50"
   xml:space="preserve"
   sodipodi:docname="esri.svg"><metadata
     id="metadata8"><rdf:RDF><cc:Work
         rdf:about=""><dc:format>image/svg+xml</dc:format><dc:type
           rdf:resource="http://purl.org/dc/dcmitype/StillImage" /><dc:title></dc:title></cc:Work></rdf:RDF></metadata><defs
     id="defs6"><clipPath
       clipPathUnits="userSpaceOnUse"
       id="clipPath38"><path
         d="m 130.477,88.167 67.082,0 0,86.25 -67.082,0 0,-86.25 z"
         id="path40"
         inkscape:connector-curvature="0" /></clipPath><clipPath
       clipPathUnits="userSpaceOnUse"
       id="clipPath496"><path
         d="m 130.477,88.167 67.082,0 0,86.25 -67.082,0 0,-86.25 z"
         id="path498"
         inkscape:connector-curvature="0" /></clipPath></defs><sodipodi:namedview
     pagecolor="#ffffff"
     bordercolor="#666666"
     borderopacity="1"
     objecttolerance="10"
     gridtolerance="10"
     guidetolerance="10"
     inkscape:pageopacity="0"
     inkscape:pageshadow="2"
     inkscape:window-width="1366"
     inkscape:window-height="705"
     id="namedview4"
     showgrid="false"
     inkscape:zoom="2.6700352"
     inkscape:cx="125"
     inkscape:cy="56.071459"
     inkscape:window-x="-8"
     inkscape:window-y="-8"
     inkscape:window-maximized="1"
     inkscape:current-layer="g10" /><g
     id="g10"
     inkscape:groupmode="layer"
     inkscape:label="ESRI_ArcGIS"
     transform="matrix(1.25,0,0,-1.25,0,50)"><path
       d="m 2.6661788,12.861214 2.0772794,0 0,0.547829 -1.309244,0 0,0.657871 1.1932196,0 0,0.548624 -1.1932196,0 0,0.598464 1.2636716,0 0,0.549426 -2.031707,0 0,-2.902214"
       style="fill:#000000;fill-opacity:1;fill-rule:nonzero;stroke:none"
       id="path12"
       inkscape:connector-curvature="0" /><path
       d="m 5.5652802,12.935773 c 0.257168,-0.08373 0.590888,-0.124398 0.859619,-0.124398 0.640727,0 1.267898,0.202944 1.267898,0.955709 0,1.047813 -1.36319,0.732031 -1.36319,1.201313 0,0.254378 0.322158,0.270727 0.51633,0.270727 0.219689,0 0.442169,-0.04106 0.639929,-0.133173 l 0.04983,0.598867 c -0.194172,0.06658 -0.466492,0.10805 -0.743196,0.10805 -0.577732,0 -1.255539,-0.190986 -1.255539,-0.88992 0,-1.055389 1.362393,-0.714894 1.362393,-1.255542 0,-0.232447 -0.230454,-0.283083 -0.474464,-0.283083 -0.318171,0 -0.594877,0.08373 -0.793833,0.192177 l -0.06579,-0.640727"
       style="fill:#000000;fill-opacity:1;fill-rule:nonzero;stroke:none"
       id="path14"
       inkscape:connector-curvature="0" /><path
       d="m 8.5400562,12.861214 0.767915,0 0,1.14709 0.16108,0 c 0.285476,0 0.384356,-0.124796 0.5418458,-0.623981 l 0.164668,-0.523109 0.801407,0 -0.281489,0.789447 c -0.143934,0.353656 -0.160281,0.574143 -0.408677,0.639927 l 0,0.0096 c 0.371995,0.08731 0.553807,0.344488 0.553807,0.730835 0,0.498791 -0.417449,0.732434 -0.9293928,0.732434 l -1.371164,0 0,-2.902213 z m 0.767915,2.352788 0.202944,0 c 0.293451,0 0.5613838,-0.04986 0.5613838,-0.320161 0,-0.328541 -0.3141828,-0.336511 -0.5613838,-0.336511 l -0.202944,0 0,0.656672"
       style="fill:#000000;fill-opacity:1;fill-rule:evenodd;stroke:none"
       id="path16"
       inkscape:connector-curvature="0" /><path
       d="m 12.150775,12.861214 0,2.902214"
       style="fill:none;stroke:#000000;stroke-width:0.76791573;stroke-linecap:butt;stroke-linejoin:miter;stroke-miterlimit:10;stroke-opacity:1;stroke-dasharray:none"
       id="path18"
       inkscape:connector-curvature="0" /><path
       d="m 27.085659,13.196528 -4.977498,0 0,-2.419771 1.603213,0 c -0.185401,-0.77549 -1.12556,-1.2870353 -1.865562,-1.2870353 -1.833668,0 -2.326076,1.4417353 -2.326076,3.0246143 0,1.970427 0.677809,3.27341 2.11077,3.27341 0.940561,0 1.602416,-0.49679 1.864765,-1.412227 l 3.451637,0 c -0.446156,2.745912 -2.588827,4.141796 -5.254201,4.141796 -3.591185,0 -5.810803,-2.45047 -5.810803,-6.018131 0,-3.8945989 2.543375,-5.7406268 5.379395,-5.7406268 1.740774,0 2.742328,0.6514923 3.343585,1.3651832 l 0.138753,-1.1016357 2.342022,0 0,6.1744233"
       style="fill:#006bad;fill-opacity:1;fill-rule:nonzero;stroke:none"
       id="path20"
       inkscape:connector-curvature="0" /><path
       d="m 29.285743,7.0536026 3.637031,0 0,11.1698664 -3.637031,0 0,-11.1698664 z"
       style="fill:#006bad;fill-opacity:1;fill-rule:nonzero;stroke:none"
       id="path22"
       inkscape:connector-curvature="0" /><path
       d="m 44.417193,14.979957 c -0.262357,1.955678 -1.664222,3.537358 -4.746651,3.537358 -2.773826,0 -4.808045,-1.193733 -4.808045,-3.567658 0,-4.265401 6.380564,-3.102761 6.380564,-4.793292 0,-0.5278926 -0.601658,-0.8221403 -1.510318,-0.8221403 -0.35525,0 -0.740003,0.092502 -1.032658,0.2790972 -0.308997,0.1857986 -0.524704,0.4804451 -0.601652,0.8839391 l -3.482337,0 c 0.07655,-2.0158776 1.987973,-3.7387038 4.916096,-3.7387038 3.050534,0 5.193201,1.2571327 5.193201,3.8475518 0,4.06445 -6.37936,3.025413 -6.37936,4.70119 0,0.402703 0.354052,0.635944 1.155457,0.635944 0.353658,0 0.677811,-0.063 0.939763,-0.202146 0.261954,-0.139548 0.4629,-0.37279 0.523104,-0.76114 l 3.452836,0"
       style="fill:#006bad;fill-opacity:1;fill-rule:nonzero;stroke:none"
       id="path24"
       inkscape:connector-curvature="0" /><path
       d="m 11.762431,22.942604 -2.0401998,0 0.9995668,3.556888 1.040633,-3.556888 z m -3.0266088,-3.379068 0.369206,1.310954 3.2191858,0 0.383559,-1.310954 3.218787,0 -3.533768,9.928276 -3.2877638,0 -3.533368,-9.928276 3.164162,0"
       style="fill:#000000;fill-opacity:1;fill-rule:evenodd;stroke:none"
       id="path26"
       inkscape:connector-curvature="0" /><path
       d="m 16.789766,19.563536 2.847986,0 0,2.495919 c 0,1.558159 0.589691,2.110377 1.753928,2.110377 0.191776,0 0.396714,-0.05503 0.588893,-0.08294 l 0,2.868322 c -0.123201,0.01276 -0.246797,0.04068 -0.370005,0.04068 -1.109605,0 -1.807346,-0.537859 -2.204865,-1.668601 l -0.0271,0 0,1.46247 -2.588824,0 0,-7.226219"
       style="fill:#000000;fill-opacity:1;fill-rule:nonzero;stroke:none"
       id="path28"
       inkscape:connector-curvature="0" /><path
       d="m 30.375417,24.031481 c -0.204937,2.136684 -2.013088,2.964404 -3.930087,2.964404 -2.369537,0 -4.095153,-1.420203 -4.095153,-3.887818 0,-2.441302 1.78024,-3.751069 4.095153,-3.751069 0.999967,0 1.930554,0.206538 2.643446,0.675418 0.726051,0.482839 1.218461,1.24158 1.341661,2.330859 l -2.875897,0 c -0.08173,-0.565371 -0.370004,-1.075321 -1.10921,-1.075321 -0.836093,0 -1.24637,0.716882 -1.24637,1.805358 0,0.855635 0.177827,1.972421 1.24637,1.972421 0.314583,0 0.560984,-0.0965 0.739206,-0.289467 0.178623,-0.179414 0.288268,-0.427014 0.301027,-0.744785 l 2.889854,0"
       style="fill:#000000;fill-opacity:1;fill-rule:nonzero;stroke:none"
       id="path30"
       inkscape:connector-curvature="0" /><path
       d="m 44.831849,17.467914 0,1.049006 -0.375188,0 0,0.137152 0.930594,0 0,-0.137152 -0.374392,0 0,-1.049006 -0.181014,0 z m 0.811372,0 0,1.186158 0.29226,0 0.349665,-0.914239 0.34967,0.914239 0.292253,0 0,-1.186158 -0.181409,0 0,1.031861 -0.0051,0 -0.395522,-1.031861 -0.1232,0 -0.39273,1.031861 -0.0064,0 0,-1.031861 -0.17942,0"
       style="fill:#000000;fill-opacity:1;fill-rule:evenodd;stroke:none"
       id="path32"
       inkscape:connector-curvature="0" /></g></svg>