<?xml version="1.0" encoding="UTF-8" standalone="no"?>
<!-- Generator: Adobe Illustrator 16.0.0, SVG Export Plug-In . SVG Version: 6.00 Build 0)  -->

<svg
   xmlns:dc="http://purl.org/dc/elements/1.1/"
   xmlns:cc="http://creativecommons.org/ns#"
   xmlns:rdf="http://www.w3.org/1999/02/22-rdf-syntax-ns#"
   xmlns:svg="http://www.w3.org/2000/svg"
   xmlns="http://www.w3.org/2000/svg"
   xmlns:sodipodi="http://sodipodi.sourceforge.net/DTD/sodipodi-0.dtd"
   xmlns:inkscape="http://www.inkscape.org/namespaces/inkscape"
   version="1.1"
   id="Layer_1"
   x="0px"
   y="0px"
   width="110"
   height="35"
   viewBox="0 0 103.12501 32.812502"
   enable-background="new 0 0 722.569 346.291"
   xml:space="preserve"
   inkscape:version="0.48.5 r10040"
   sodipodi:docname="QGIS.svg"
   inkscape:export-filename="E:\Google Drive\QGIS_Graphics\Logo candidate 3.0 final files\qgis-logo_anita0.png"
   inkscape:export-xdpi="278"
   inkscape:export-ydpi="278"><metadata
     id="metadata46"><rdf:RDF><cc:Work
         rdf:about=""><dc:format>image/svg+xml</dc:format><dc:type
           rdf:resource="http://purl.org/dc/dcmitype/StillImage" /><dc:title /></cc:Work></rdf:RDF></metadata><defs
     id="defs44" /><sodipodi:namedview
     pagecolor="#ffffff"
     bordercolor="#666666"
     borderopacity="1"
     objecttolerance="10"
     gridtolerance="10"
     guidetolerance="10"
     inkscape:pageopacity="0"
     inkscape:pageshadow="2"
     inkscape:window-width="1366"
     inkscape:window-height="705"
     id="namedview42"
     showgrid="false"
     inkscape:zoom="1.2565238"
     inkscape:cx="150.26037"
     inkscape:cy="20.630853"
     inkscape:window-x="-8"
     inkscape:window-y="-8"
     inkscape:window-maximized="1"
     inkscape:current-layer="Layer_1"
     fit-margin-top="0"
     fit-margin-right="0"
     fit-margin-bottom="0"
     fit-margin-left="0" /><polygon
     points="198.306,162 176,162 176,183.433 195,202.37 195,180 216.513,180 "
     id="polygon3"
     style="fill:#ee7913"
     transform="matrix(0.18846092,0,0,0.18846092,-15.280579,-15.800772)" /><linearGradient
     id="SVGID_1_"
     gradientUnits="userSpaceOnUse"
     x1="350.02249"
     y1="247.7832"
     x2="347.78201"
     y2="100.4837"
     gradientTransform="matrix(0.18846092,0,0,0.18846092,-15.280579,-15.800772)"><stop
       offset="0"
       style="stop-color:#589632"
       id="stop6" /><stop
       offset="1"
       style="stop-color:#93B023"
       id="stop8" /></linearGradient><path
     d="m 62.788501,16.451477 v 10.242757 c -2.817639,2.056506 -7.120344,3.465068 -10.813817,3.465068 -8.072343,0 -14.202778,-5.863437 -14.202778,-13.593337 0,-7.6918002 6.24466,-13.5174381 14.545778,-13.5174381 3.960144,0 7.995751,1.523156 10.699502,3.883762 L 59.628308,11.235215 C 57.648143,9.4075768 54.906993,8.2650458 52.317684,8.2650458 c -4.721867,0 -8.377259,3.6173752 -8.377259,8.3009192 0,4.7214 3.693685,8.33915 8.41495,8.33915 1.599268,0 3.503298,-0.571332 5.216814,-1.447113 v -7.006306 h 5.216312 z"
     id="path10"
     inkscape:connector-curvature="0"
     style="fill:url(#SVGID_1_)" /><linearGradient
     id="SVGID_2_"
     gradientUnits="userSpaceOnUse"
     x1="459.22171"
     y1="246.1226"
     x2="456.98129"
     y2="98.822403"
     gradientTransform="matrix(0.18846092,0,0,0.18846092,-15.280579,-15.800772)"><stop
       offset="0"
       style="stop-color:#589632"
       id="stop13" /><stop
       offset="1"
       style="stop-color:#93B023"
       id="stop15" /></linearGradient><path
     d="M 68.043444,29.892683 V 3.2386709 h 6.016037 V 29.892683 z"
     id="path17"
     inkscape:connector-curvature="0"
     style="fill:url(#SVGID_2_)" /><linearGradient
     id="SVGID_3_"
     gradientUnits="userSpaceOnUse"
     x1="553.50677"
     y1="244.6875"
     x2="551.26642"
     y2="97.388199"
     gradientTransform="matrix(0.18846092,0,0,0.18846092,-15.280579,-15.800772)"><stop
       offset="0"
       style="stop-color:#589632"
       id="stop20" /><stop
       offset="1"
       style="stop-color:#93B023"
       id="stop22" /></linearGradient><path
     d="m 99.83724,5.8660269 -2.322731,4.9880121 c -2.81763,-1.6754622 -6.168458,-2.7415931 -8.300836,-2.7415931 -2.017867,0 -3.388545,0.7234999 -3.388545,2.1705751 0,4.912025 14.202752,2.170444 14.164572,11.765812 0,5.216438 -4.531309,8.034231 -10.432976,8.034231 -4.379288,0 -8.758141,-1.675455 -11.765903,-4.226618 l 2.39868,-4.911806 c 2.741722,2.437212 6.625425,3.998143 9.443003,3.998143 2.475247,0 3.96015,-0.913837 3.96015,-2.551131 0,-5.026193 -14.202676,-2.094262 -14.202676,-11.537493 0,-4.8356941 4.150395,-7.8819381 10.319176,-7.8819381 3.731392,-1.94e-4 7.462792,1.142181 10.128086,2.893806 z"
     id="path24"
     inkscape:connector-curvature="0"
     style="fill:url(#SVGID_3_)" /><linearGradient
     id="SVGID_4_"
     gradientUnits="userSpaceOnUse"
     x1="234.4702"
     y1="250.03419"
     x2="232.211"
     y2="101.4977"><stop
       offset="0"
       style="stop-color:#589632"
       id="stop27" /><stop
       offset="1"
       style="stop-color:#93B023"
       id="stop29" /></linearGradient><polygon
     points="204,189 204,211.34 240.782,248 264,248 264,226.946 225.617,189 "
     id="polygon31"
     style="fill:url(#SVGID_4_)"
     transform="matrix(0.18846092,0,0,0.18846092,-15.280579,-15.800772)" /><polygon
     points="216.513,180 195,180 195,202.37 204,211.34 204,189 225.617,189 "
     id="polygon33"
     style="fill:#f0e64a"
     transform="matrix(0.18846092,0,0,0.18846092,-15.280579,-15.800772)" /><linearGradient
     id="SVGID_5_"
     gradientUnits="userSpaceOnUse"
     x1="188.7529"
     y1="250.2354"
     x2="186.5125"
     y2="102.9362"
     gradientTransform="matrix(0.18846092,0,0,0.18846092,-15.280579,-15.800772)"><stop
       offset="0"
       style="stop-color:#589632"
       id="stop36" /><stop
       offset="1"
       style="stop-color:#93B023"
       id="stop38" /></linearGradient><path
     d="m 22.044461,25.069734 c -0.614189,0.141274 -1.252885,0.217887 -1.911738,0.217887 -4.712473,0 -8.720279,-3.87515 -8.720279,-8.899406 0,-5.024382 3.963707,-8.8141511 8.720279,-8.8141511 4.756569,0 8.544053,3.7895821 8.544053,8.8141511 0,0.817062 -0.10175,1.603368 -0.290048,2.348081 l 4.361741,4.361056 c 1.124587,-1.9704 1.753648,-4.261262 1.753648,-6.742687 0,-7.7438822 -6.179836,-13.5421321 -14.457594,-13.5421321 -8.239895,0 -14.4195228,5.7601819 -14.4195228,13.5421321 0,7.819906 6.1798288,13.694562 14.4195228,13.694562 2.127148,0 4.115027,-0.391182 5.895798,-1.103144 z"
     id="path40"
     inkscape:connector-curvature="0"
     style="fill:url(#SVGID_5_)" /><path
     d="m 17.888542,14.729965 16.584547,16.20755 V 26.969608 L 27.239428,19.81829 25.523759,18.122227 22.09245,14.729965 z"
     id="polygon4174"
     style="fill:#ffffff;fill-opacity:0.17254902"
     inkscape:connector-curvature="0"
     sodipodi:nodetypes="ccccccc" /></svg>